Land_normalized_Motion_pl11
version=1
nRows=25
nColumns=43
inDegrees=yes
endheader
time		pelvis_tilt		pelvis_list		pelvis_rotation		pelvis_tx		pelvis_ty		pelvis_tz		hip_flexion_r		hip_adduction_r		hip_rotation_r		knee_angle_r		ankle_angle_r		subtalar_angle_r		mtp_angle_r		hip_flexion_l		hip_adduction_l		hip_rotation_l		knee_angle_l		ankle_angle_l		subtalar_angle_l		mtp_angle_l		lumbar_extension		lumbar_bending		lumbar_rotation		neck_flexion		neck_lateral_bending		neck_rotation		arm_flex_r		arm_add_r		arm_rot_r		elbow_flex_r		pro_sup_r		wrist_flex_r		wrist_dev_r		hand_finger_flex_r		arm_flex_l		arm_add_l		arm_rot_l		elbow_flex_l		pro_sup_l		wrist_flex_l		wrist_dev_l		hand_finger_flex_l		
2.271566		-1.604331		5.629438		88.089452		-0.016418		0.499773		0.462204		78.763018		-2.431970		5.770467		-121.880991		19.701662		-3.815846		16.625745		76.942361		-1.455359		-0.373445		-122.678135		22.820113		3.687798		25.052668		-57.589475		-1.807369		0.929966		8.309712		4.820231		-1.983436		28.323568		-27.954993		-6.615379		54.913607		125.713504		-15.540718		-16.090228		-22.431942		19.868305		-25.348941		-7.517123		64.641150		141.943324		-32.224021		-3.879211		-5.319321		
2.274697		-1.649341		5.548191		88.113030		-0.016545		0.494994		0.461837		79.650564		-2.751537		5.734245		-122.719012		19.509396		-3.425520		16.808708		77.702641		-1.698791		-0.454354		-123.472589		22.782985		4.142630		25.189562		-57.836088		-1.846107		0.840095		8.448341		4.949126		-2.041785		30.761695		-28.169403		-5.181696		55.616123		125.643053		-15.063692		-16.146625		-22.367741		22.541873		-25.695195		-6.031385		65.313616		141.430571		-31.929865		-3.493596		-4.793016		
2.277828		-1.730880		5.435788		88.124617		-0.016636		0.490166		0.461448		80.562979		-3.059868		5.783884		-123.519986		19.414328		-2.908409		17.159835		78.476449		-2.018457		-0.605870		-124.263454		22.877015		4.629161		25.452000		-58.026941		-1.901082		0.707998		8.661454		5.037020		-2.083166		33.223930		-28.315270		-3.657595		56.281324		125.227495		-14.666727		-16.105512		-22.447273		25.289579		-26.124399		-4.290517		65.816171		140.503825		-31.998253		-3.033155		-4.150459		
2.280960		-1.872997		5.335891		88.111170		-0.016637		0.485436		0.461087		81.461977		-3.368012		5.911975		-124.322902		19.368086		-2.313216		17.717777		79.202101		-2.349823		-0.781471		-124.999250		23.045807		5.075288		25.857130		-58.211719		-2.031717		0.557045		8.918570		5.067421		-2.122090		35.719523		-28.354550		-2.181616		56.797315		124.496337		-14.369692		-15.990741		-22.683176		28.174128		-26.473206		-2.463722		66.088076		139.241342		-32.451495		-2.678700		-3.361953		
2.284091		-2.052014		5.300739		88.068509		-0.016774		0.480753		0.460676		82.329308		-3.698400		6.106555		-125.139564		19.280702		-1.615351		18.242636		79.831529		-2.702275		-1.012256		-125.732775		23.245499		5.544488		26.199513		-58.424618		-2.184582		0.409374		9.033272		5.075209		-2.178009		38.217666		-28.491423		-0.651206		57.254725		124.073791		-14.027864		-16.018699		-22.844216		31.078228		-26.752231		-0.718857		66.243849		138.410403		-32.627720		-2.632161		-2.800600		
2.287222		-2.171212		5.242397		88.032683		-0.017012		0.476133		0.460325		83.194763		-4.036010		6.238409		-125.913964		19.194968		-1.103988		18.623431		80.485351		-3.061609		-1.196404		-126.454458		23.433054		5.862887		26.442244		-58.646290		-2.270202		0.283776		9.380913		5.085801		-2.177473		40.745516		-28.604925		0.788471		57.695065		123.897048		-13.611897		-16.132805		-22.885566		33.935074		-26.988508		0.832071		66.432290		137.949512		-32.532453		-2.742589		-2.366677		
2.290354		-2.506311		5.300616		87.984599		-0.017146		0.471669		0.459975		84.007145		-4.407864		6.717889		-126.727515		19.232882		0.018606		20.032867		80.938487		-3.403904		-1.577006		-127.107362		23.720072		6.382541		27.146017		-58.940370		-2.562717		0.101667		9.504138		5.161823		-2.316942		43.188353		-28.954188		2.683005		58.065302		122.645060		-13.610063		-16.253821		-23.626235		37.192150		-27.387699		3.406806		66.219840		136.241419		-33.569978		-2.603032		-1.544229		
2.293485		-2.595468		5.320370		87.959636		-0.017395		0.467382		0.459712		84.762601		-4.734169		6.906473		-127.451942		19.115998		0.717150		20.464728		81.470437		-3.736775		-1.686764		-127.766931		23.948760		6.786369		27.334233		-59.193209		-2.622179		0.027910		9.643657		5.127103		-2.330047		45.823838		-29.047049		4.165777		58.190404		122.583042		-13.198489		-16.368515		-23.692272		40.236225		-27.391844		4.943583		66.080745		136.068454		-33.201530		-2.639327		-1.234359		
2.296616		-2.729556		5.402135		87.934825		-0.017537		0.463158		0.459433		85.465331		-5.093989		7.187978		-128.191873		19.130676		1.746005		21.144637		81.911130		-4.080890		-1.826555		-128.402100		24.219085		7.315918		27.593165		-59.489213		-2.743072		-0.045225		9.642460		5.156383		-2.393245		48.407963		-29.308046		5.941385		58.332999		122.235445		-12.962333		-16.542804		-23.994769		43.412497		-27.539921		6.936803		65.840271		135.682073		-33.099861		-2.563539		-0.959217		
2.299747		-2.826463		5.501567		87.936517		-0.017672		0.459265		0.459278		86.046906		-5.429330		7.517665		-128.842986		19.327425		3.016578		21.927640		82.303938		-4.406289		-1.930279		-128.986725		24.499236		7.858132		27.824336		-59.826308		-2.846292		-0.062738		9.735582		5.242473		-2.504505		51.055503		-29.535923		7.777489		58.274124		121.487495		-12.996080		-16.651074		-24.577115		46.787289		-27.515445		9.106671		65.337312		135.188595		-33.237147		-2.276001		-0.881183		
2.302879		-2.822416		5.438850		87.933023		-0.017767		0.455120		0.459114		86.769175		-5.746183		7.664167		-129.456932		19.466837		3.792520		22.338752		82.907943		-4.759202		-1.958735		-129.583151		24.685228		8.181099		27.928815		-60.034664		-2.872949		-0.076174		10.115051		5.335377		-2.519429		53.703190		-29.698978		9.480085		58.322711		121.249423		-12.673693		-16.792083		-24.776899		49.910100		-27.571869		10.888223		65.072484		135.196963		-32.907392		-2.356571		-0.744086		
2.306010		-2.811180		5.450485		87.940103		-0.017904		0.451316		0.459057		87.320280		-6.035421		7.912203		-130.002311		19.805037		5.026866		22.874723		83.385145		-5.101686		-1.971399		-130.146452		24.941713		8.716873		28.039541		-60.290271		-2.904687		-0.010619		10.327763		5.439068		-2.617636		56.412972		-29.815967		11.243702		58.082550		120.609576		-12.690466		-16.816125		-25.310939		53.234795		-27.333518		12.840970		64.435420		135.100036		-32.886967		-2.113140		-0.742564		
2.309141		-2.785171		5.388259		87.942795		-0.018027		0.447387		0.458997		87.942557		-6.351997		8.098012		-130.535365		20.183881		6.147247		23.334732		83.926655		-5.474362		-1.995404		-130.703569		25.217805		9.225918		28.080551		-60.495036		-2.934863		0.059768		10.741903		5.579239		-2.731627		59.090117		-30.005068		13.101058		57.931290		119.896575		-12.689888		-16.934614		-25.931403		56.511808		-27.155090		14.815366		63.839513		135.271192		-32.902833		-2.011167		-0.730417		
2.312273		-2.741701		5.296345		87.932759		-0.018165		0.443336		0.458931		88.614401		-6.668755		8.228619		-131.067381		20.450110		7.040345		23.645985		84.501790		-5.867883		-1.999133		-131.268847		25.426628		9.704015		28.099622		-60.619426		-2.946840		0.124051		10.945812		5.673120		-2.797544		61.766706		-30.072655		14.782540		57.698003		119.640826		-12.368199		-17.007733		-26.215782		59.656443		-26.905831		16.503143		63.248577		135.572345		-32.513959		-2.058022		-0.590543		
2.315404		-2.674454		5.277891		87.922609		-0.018370		0.439644		0.458964		89.132396		-6.958784		8.393543		-131.537808		20.834358		8.254925		23.932713		84.929742		-6.258763		-1.973361		-131.794746		25.792026		10.488312		28.072854		-60.820859		-2.939892		0.269856		11.074790		5.741873		-2.929347		64.463291		-30.034358		16.278631		57.247623		119.510228		-12.204815		-17.119299		-26.623252		62.878737		-26.381385		18.102741		62.359697		136.154439		-32.197460		-2.045035		-0.588418		
2.318535		-2.630999		5.086741		87.921043		-0.018569		0.435596		0.458945		89.897557		-7.263365		8.454943		-132.038342		21.044729		8.855895		24.074452		85.544526		-6.626105		-1.990081		-132.316187		26.137420		10.942807		28.044958		-60.871604		-2.920660		0.319837		11.548090		5.776774		-2.979877		67.075315		-29.861437		17.507755		56.921858		119.698388		-11.720864		-17.218566		-26.666049		65.876706		-26.026947		19.462620		61.738219		136.739270		-31.533955		-2.304367		-0.491623		
2.321667		-2.590792		4.977254		87.919369		-0.018784		0.431840		0.458950		90.557279		-7.546387		8.557798		-132.508825		21.243590		9.598070		24.243245		86.018352		-6.980567		-1.985416		-132.802930		26.580402		11.580443		27.991933		-60.994205		-2.910683		0.414769		11.894882		5.817528		-3.087013		69.670832		-29.639743		18.627582		56.440677		119.903490		-11.294774		-17.341206		-26.795177		68.926909		-25.485811		20.803640		60.889795		137.428390		-30.928329		-2.524731		-0.510341		
2.324798		-2.560062		4.896671		87.918525		-0.018996		0.428299		0.458968		91.172529		-7.809708		8.670248		-132.955456		21.405759		10.328469		24.438755		86.425032		-7.328488		-1.992402		-133.254879		27.088873		12.280798		27.893552		-61.158321		-2.909568		0.520418		12.258751		5.893238		-3.227165		72.218810		-29.370930		19.608260		55.905349		120.131781		-10.862108		-17.490728		-26.995843		71.956722		-24.841341		22.073853		59.923777		138.181146		-30.366346		-2.753223		-0.638943		
2.327929		-2.548413		4.809526		87.923653		-0.019093		0.424769		0.458901		91.803809		-8.059779		8.785224		-133.414473		21.525660		10.959285		24.636267		86.840513		-7.652844		-1.959281		-133.710966		27.600142		12.908682		27.767546		-61.302173		-2.956023		0.587492		12.662205		5.980160		-3.349149		74.674145		-29.050470		20.468061		55.327044		120.430244		-10.350989		-17.588552		-27.173138		74.886554		-24.147597		23.222950		58.986520		138.883693		-29.774432		-3.006199		-0.799624		
2.331061		-2.552767		4.796707		87.910803		-0.019246		0.421587		0.458852		92.316700		-8.286965		8.971282		-133.835195		21.698071		11.764442		24.937939		87.138287		-7.977662		-1.958532		-134.131708		28.135555		13.684189		27.502924		-61.528855		-3.028576		0.672947		13.022673		6.148790		-3.507567		77.079303		-28.705008		21.194634		54.689553		120.800788		-9.812065		-17.708907		-27.606065		77.792424		-23.304367		24.299977		57.867121		139.606746		-29.276418		-3.221200		-1.217694		
2.334192		-2.554728		4.698875		87.896385		-0.019398		0.418321		0.458760		92.902587		-8.519467		9.145434		-134.245482		21.909886		12.507848		25.248893		87.551397		-8.285239		-1.962933		-134.551274		28.598010		14.304344		27.188715		-61.662629		-3.103820		0.713847		13.418310		6.336286		-3.626077		79.410762		-28.307606		21.875737		54.079710		121.219346		-9.188787		-17.733958		-28.063185		80.555902		-22.506018		25.252590		56.843008		140.183986		-28.697376		-3.423909		-1.632988		
2.337323		-2.536074		4.509710		87.882989		-0.019577		0.414930		0.458664		93.564084		-8.775489		9.294946		-134.645238		22.173620		13.209754		25.450764		88.108977		-8.577323		-1.942810		-134.978711		28.940735		14.759827		27.001604		-61.687674		-3.148783		0.704755		13.772606		6.505514		-3.661024		81.722007		-27.840441		22.602988		53.463913		121.704346		-8.539714		-17.605367		-28.231628		83.166230		-21.818637		26.090259		55.956674		140.539036		-27.959570		-3.616547		-1.796660		
2.340455		-2.514705		4.352427		87.868064		-0.019807		0.411721		0.458563		94.124633		-9.059636		9.485542		-135.014324		22.603291		14.159282		25.662202		88.638685		-8.858527		-1.919742		-135.395012		29.225699		15.279921		26.793551		-61.736978		-3.202263		0.689157		14.097531		6.714479		-3.694775		83.947591		-27.330602		23.211342		52.809940		122.234212		-7.958768		-17.447760		-28.484212		85.690042		-21.046020		26.809450		55.001624		140.779184		-27.301535		-3.764158		-2.070405		
2.343586		-2.479201		4.165313		87.865374		-0.020050		0.408559		0.458436		94.667303		-9.386829		9.675593		-135.363149		23.127743		15.188669		25.849733		89.220879		-9.128929		-1.881092		-135.810487		29.426381		15.737550		26.574891		-61.755556		-3.237612		0.664344		14.413301		6.936183		-3.713474		86.102365		-26.770781		23.727861		52.142531		122.769764		-7.384835		-17.236700		-28.761994		88.116654		-20.253587		27.422060		54.047499		140.873025		-26.635714		-3.883169		-2.384886		
2.346717		-2.421306		3.965720		87.876065		-0.020296		0.405440		0.458309		95.192532		-9.741313		9.819459		-135.700383		23.682744		16.203190		25.998785		89.850079		-9.383770		-1.825958		-136.224155		29.544880		16.115643		26.359678		-61.755455		-3.247771		0.631788		14.725372		7.151125		-3.718654		88.188660		-26.163727		24.155715		51.457740		123.278332		-6.807317		-16.986755		-29.032109		90.457779		-19.457817		27.933843		53.111867		140.830044		-25.950194		-3.971016		-2.712396		
